<?xml version="1.0" encoding="UTF-8" standalone="no"?>
<svg
   xmlns:dc="http://purl.org/dc/elements/1.1/"
   xmlns:cc="http://creativecommons.org/ns#"
   xmlns:rdf="http://www.w3.org/1999/02/22-rdf-syntax-ns#"
   xmlns:svg="http://www.w3.org/2000/svg"
   xmlns="http://www.w3.org/2000/svg"
   xmlns:sodipodi="http://sodipodi.sourceforge.net/DTD/sodipodi-0.dtd"
   xmlns:inkscape="http://www.inkscape.org/namespaces/inkscape"
   inkscape:version="1.0 (4035a4f, 2020-05-01)"
   sodipodi:docname="sharkfin4.png.svg"
   viewBox="0 0 384 322.88"
   height="322.88"
   width="384"
   id="svg78"
   version="1.1">
  <metadata
     id="metadata84">
    <rdf:RDF>
      <cc:Work
         rdf:about="">
        <dc:format>image/svg+xml</dc:format>
        <dc:type
           rdf:resource="http://purl.org/dc/dcmitype/StillImage" />
        <dc:title></dc:title>
      </cc:Work>
    </rdf:RDF>
  </metadata>
  <defs
     id="defs82" />
  <sodipodi:namedview
     inkscape:current-layer="g86"
     inkscape:window-maximized="0"
     inkscape:window-y="0"
     inkscape:window-x="0"
     inkscape:cy="161.44"
     inkscape:cx="192"
     inkscape:zoom="1.5671457"
     showguides="false"
     showgrid="false"
     id="namedview80"
     inkscape:window-height="800"
     inkscape:window-width="1280"
     inkscape:pageshadow="2"
     inkscape:pageopacity="0"
     guidetolerance="10"
     gridtolerance="10"
     objecttolerance="10"
     borderopacity="1"
     bordercolor="#666666"
     pagecolor="#ffffff" />
  <g
     id="g86"
     inkscape:label="Image"
     inkscape:groupmode="layer">
    <path
       id="path90"
       d="m 194.99637,227.86801 c -8.7146,-1.10847 -16.77188,-4.45185 -24.99318,-10.37098 -5.5838,-4.02019 -9.38816,-5.52352 -13.88682,-5.48752 -4.44263,0.0356 -7.56755,1.2239 -13.8853,5.28034 -4.12319,2.64738 -6.16669,3.5289 -9.76121,4.21077 -6.11198,1.15943 -13.79443,0.33213 -21.78588,-2.34604 -4.45989,-1.49464 -10.743369,-4.00689 -11.326159,-4.5284 -0.5997,-0.53665 13.458679,-26.239 23.793219,-43.50017 33.69691,-56.28194 69.01005,-98.902464 103.20533,-124.561704 9.00323,-6.75579 16.58553,-11.51826 25.6,-16.07944 10.42418,-5.27448 13.4582,-6.17274 16.88457,-4.99889 2.02318,0.69313 4.23472,2.68777 5.22563,4.71311 1.38053,2.82169 1.24957,4.45602 -1.24093,15.48692 -5.18279,22.95549 -7.26927,40.08531 -7.26927,59.680004 0,40.95857 10.66764,77.82641 32.04405,110.74573 1.38063,2.12615 2.5947,4.28803 2.69793,4.80417 0.18535,0.92678 0.15255,0.95134 -2.63714,1.97486 -5.73018,2.10234 -10.59852,2.95267 -16.90484,2.95267 -8.42796,0 -13.55776,-1.37096 -23.58242,-6.30245 -7.10358,-3.49452 -10.58563,-4.89939 -14.18624,-5.72361 -3.2709,-0.74875 -8.1974,-0.74655 -11.03134,0.005 -3.0079,0.79761 -7.38702,2.98962 -10.88,5.44611 -9.14446,6.43096 -11.12762,7.45108 -16.20742,8.33692 -2.50857,0.43746 -7.46227,0.56926 -9.87258,0.26268 z"
       style="fill:#484647;fill-opacity:1;stroke-width:0.32" />
  </g>
</svg>
